<mxfile host="app.diagrams.net" modified="2020-12-21T09:22:54.631Z" agent="5.0 (Macintosh; Intel Mac OS X 10_15_7) AppleWebKit/537.36 (KHTML, like Gecko) Chrome/87.0.4280.88 Safari/537.36" etag="u6MGIoTicnSnSEciwM1M" version="14.0.3" type="github">
  <diagram id="C5RBs43oDa-KdzZeNtuy" name="Page-1">
    <mxGraphModel dx="1351" dy="1950" grid="1" gridSize="10" guides="1" tooltips="1" connect="1" arrows="1" fold="1" page="1" pageScale="1" pageWidth="827" pageHeight="1169" math="0" shadow="0">
      <root>
        <mxCell id="WIyWlLk6GJQsqaUBKTNV-0" />
        <mxCell id="WIyWlLk6GJQsqaUBKTNV-1" parent="WIyWlLk6GJQsqaUBKTNV-0" />
        <mxCell id="bpUOQ-OWbFzP9RijDi25-14" style="edgeStyle=orthogonalEdgeStyle;rounded=0;orthogonalLoop=1;jettySize=auto;html=1;" edge="1" parent="WIyWlLk6GJQsqaUBKTNV-1" source="WIyWlLk6GJQsqaUBKTNV-3" target="bpUOQ-OWbFzP9RijDi25-2">
          <mxGeometry relative="1" as="geometry" />
        </mxCell>
        <mxCell id="WIyWlLk6GJQsqaUBKTNV-3" value="开始" style="rounded=1;whiteSpace=wrap;html=1;fontSize=12;glass=0;strokeWidth=1;shadow=0;" parent="WIyWlLk6GJQsqaUBKTNV-1" vertex="1">
          <mxGeometry x="50" y="-1130" width="120" height="40" as="geometry" />
        </mxCell>
        <mxCell id="bpUOQ-OWbFzP9RijDi25-16" style="edgeStyle=orthogonalEdgeStyle;rounded=0;orthogonalLoop=1;jettySize=auto;html=1;" edge="1" parent="WIyWlLk6GJQsqaUBKTNV-1" source="bpUOQ-OWbFzP9RijDi25-2" target="bpUOQ-OWbFzP9RijDi25-3">
          <mxGeometry relative="1" as="geometry" />
        </mxCell>
        <mxCell id="bpUOQ-OWbFzP9RijDi25-2" value="根据班级计算小组" style="rounded=0;whiteSpace=wrap;html=1;" vertex="1" parent="WIyWlLk6GJQsqaUBKTNV-1">
          <mxGeometry x="50" y="-1010" width="120" height="60" as="geometry" />
        </mxCell>
        <mxCell id="bpUOQ-OWbFzP9RijDi25-17" style="edgeStyle=orthogonalEdgeStyle;rounded=0;orthogonalLoop=1;jettySize=auto;html=1;" edge="1" parent="WIyWlLk6GJQsqaUBKTNV-1" source="bpUOQ-OWbFzP9RijDi25-3" target="bpUOQ-OWbFzP9RijDi25-8">
          <mxGeometry relative="1" as="geometry" />
        </mxCell>
        <mxCell id="bpUOQ-OWbFzP9RijDi25-3" value="更改用户班级，及缓存" style="rounded=0;whiteSpace=wrap;html=1;" vertex="1" parent="WIyWlLk6GJQsqaUBKTNV-1">
          <mxGeometry x="50" y="-890" width="120" height="60" as="geometry" />
        </mxCell>
        <mxCell id="bpUOQ-OWbFzP9RijDi25-19" style="edgeStyle=orthogonalEdgeStyle;rounded=0;orthogonalLoop=1;jettySize=auto;html=1;exitX=1;exitY=0.5;exitDx=0;exitDy=0;entryX=0;entryY=0.5;entryDx=0;entryDy=0;" edge="1" parent="WIyWlLk6GJQsqaUBKTNV-1" source="bpUOQ-OWbFzP9RijDi25-4" target="bpUOQ-OWbFzP9RijDi25-9">
          <mxGeometry relative="1" as="geometry" />
        </mxCell>
        <mxCell id="bpUOQ-OWbFzP9RijDi25-4" value="添加课班调班日志" style="rounded=0;whiteSpace=wrap;html=1;" vertex="1" parent="WIyWlLk6GJQsqaUBKTNV-1">
          <mxGeometry x="240" y="-770" width="120" height="60" as="geometry" />
        </mxCell>
        <mxCell id="bpUOQ-OWbFzP9RijDi25-21" style="edgeStyle=orthogonalEdgeStyle;rounded=0;orthogonalLoop=1;jettySize=auto;html=1;exitX=0.5;exitY=1;exitDx=0;exitDy=0;" edge="1" parent="WIyWlLk6GJQsqaUBKTNV-1" source="bpUOQ-OWbFzP9RijDi25-5" target="bpUOQ-OWbFzP9RijDi25-6">
          <mxGeometry relative="1" as="geometry" />
        </mxCell>
        <mxCell id="bpUOQ-OWbFzP9RijDi25-5" value="同步班级队列" style="rounded=0;whiteSpace=wrap;html=1;" vertex="1" parent="WIyWlLk6GJQsqaUBKTNV-1">
          <mxGeometry x="620" y="-1010" width="120" height="60" as="geometry" />
        </mxCell>
        <mxCell id="bpUOQ-OWbFzP9RijDi25-22" style="edgeStyle=orthogonalEdgeStyle;rounded=0;orthogonalLoop=1;jettySize=auto;html=1;exitX=0.5;exitY=1;exitDx=0;exitDy=0;" edge="1" parent="WIyWlLk6GJQsqaUBKTNV-1" source="bpUOQ-OWbFzP9RijDi25-6" target="bpUOQ-OWbFzP9RijDi25-7">
          <mxGeometry relative="1" as="geometry" />
        </mxCell>
        <mxCell id="bpUOQ-OWbFzP9RijDi25-6" value="同步其他队列" style="rounded=0;whiteSpace=wrap;html=1;" vertex="1" parent="WIyWlLk6GJQsqaUBKTNV-1">
          <mxGeometry x="620" y="-870" width="120" height="60" as="geometry" />
        </mxCell>
        <mxCell id="bpUOQ-OWbFzP9RijDi25-23" style="edgeStyle=orthogonalEdgeStyle;rounded=0;orthogonalLoop=1;jettySize=auto;html=1;entryX=0.5;entryY=0;entryDx=0;entryDy=0;" edge="1" parent="WIyWlLk6GJQsqaUBKTNV-1" source="bpUOQ-OWbFzP9RijDi25-7" target="bpUOQ-OWbFzP9RijDi25-11">
          <mxGeometry relative="1" as="geometry">
            <Array as="points">
              <mxPoint x="640" y="-630" />
              <mxPoint x="320" y="-630" />
            </Array>
          </mxGeometry>
        </mxCell>
        <mxCell id="bpUOQ-OWbFzP9RijDi25-7" value="初始化学生用户课班数据缓存" style="rounded=0;whiteSpace=wrap;html=1;" vertex="1" parent="WIyWlLk6GJQsqaUBKTNV-1">
          <mxGeometry x="620" y="-740" width="120" height="60" as="geometry" />
        </mxCell>
        <mxCell id="bpUOQ-OWbFzP9RijDi25-18" style="edgeStyle=orthogonalEdgeStyle;rounded=0;orthogonalLoop=1;jettySize=auto;html=1;entryX=0;entryY=0.5;entryDx=0;entryDy=0;" edge="1" parent="WIyWlLk6GJQsqaUBKTNV-1" source="bpUOQ-OWbFzP9RijDi25-8" target="bpUOQ-OWbFzP9RijDi25-4">
          <mxGeometry relative="1" as="geometry" />
        </mxCell>
        <mxCell id="bpUOQ-OWbFzP9RijDi25-8" value="新老小组，班级，名额缓存及关系" style="rounded=0;whiteSpace=wrap;html=1;" vertex="1" parent="WIyWlLk6GJQsqaUBKTNV-1">
          <mxGeometry x="50" y="-770" width="120" height="60" as="geometry" />
        </mxCell>
        <mxCell id="bpUOQ-OWbFzP9RijDi25-20" style="edgeStyle=orthogonalEdgeStyle;rounded=0;orthogonalLoop=1;jettySize=auto;html=1;exitX=1;exitY=0.5;exitDx=0;exitDy=0;entryX=0;entryY=0.5;entryDx=0;entryDy=0;" edge="1" parent="WIyWlLk6GJQsqaUBKTNV-1" source="bpUOQ-OWbFzP9RijDi25-9" target="bpUOQ-OWbFzP9RijDi25-5">
          <mxGeometry relative="1" as="geometry" />
        </mxCell>
        <mxCell id="bpUOQ-OWbFzP9RijDi25-9" value="更新其他相关缓存" style="rounded=0;whiteSpace=wrap;html=1;" vertex="1" parent="WIyWlLk6GJQsqaUBKTNV-1">
          <mxGeometry x="414" y="-1010" width="120" height="60" as="geometry" />
        </mxCell>
        <mxCell id="bpUOQ-OWbFzP9RijDi25-26" style="edgeStyle=orthogonalEdgeStyle;rounded=0;orthogonalLoop=1;jettySize=auto;html=1;exitX=0.5;exitY=1;exitDx=0;exitDy=0;" edge="1" parent="WIyWlLk6GJQsqaUBKTNV-1" source="bpUOQ-OWbFzP9RijDi25-10" target="bpUOQ-OWbFzP9RijDi25-25">
          <mxGeometry relative="1" as="geometry" />
        </mxCell>
        <mxCell id="bpUOQ-OWbFzP9RijDi25-10" value="班级日志（course）" style="rounded=0;whiteSpace=wrap;html=1;" vertex="1" parent="WIyWlLk6GJQsqaUBKTNV-1">
          <mxGeometry x="260" y="-430" width="120" height="60" as="geometry" />
        </mxCell>
        <mxCell id="bpUOQ-OWbFzP9RijDi25-24" style="edgeStyle=orthogonalEdgeStyle;rounded=0;orthogonalLoop=1;jettySize=auto;html=1;" edge="1" parent="WIyWlLk6GJQsqaUBKTNV-1" source="bpUOQ-OWbFzP9RijDi25-11" target="bpUOQ-OWbFzP9RijDi25-10">
          <mxGeometry relative="1" as="geometry" />
        </mxCell>
        <mxCell id="bpUOQ-OWbFzP9RijDi25-11" value="&lt;pre style=&quot;background-color: #fdf6e3 ; color: #657b83 ; font-family: &amp;#34;menlo&amp;#34; ; font-size: 9.8pt&quot;&gt;&lt;span style=&quot;color: #93a1a1 ; font-style: italic&quot;&gt;调整课程下待定班限额（&lt;/span&gt;balanceClassQuota）&lt;/pre&gt;" style="rounded=0;whiteSpace=wrap;html=1;" vertex="1" parent="WIyWlLk6GJQsqaUBKTNV-1">
          <mxGeometry x="260" y="-584" width="120" height="60" as="geometry" />
        </mxCell>
        <mxCell id="bpUOQ-OWbFzP9RijDi25-12" value="调课会更改课程ID&lt;br&gt;" style="text;html=1;strokeColor=none;fillColor=none;align=center;verticalAlign=middle;whiteSpace=wrap;rounded=0;" vertex="1" parent="WIyWlLk6GJQsqaUBKTNV-1">
          <mxGeometry x="190" y="-990" width="110" height="20" as="geometry" />
        </mxCell>
        <mxCell id="bpUOQ-OWbFzP9RijDi25-25" value="返回结果，结束" style="rounded=1;whiteSpace=wrap;html=1;" vertex="1" parent="WIyWlLk6GJQsqaUBKTNV-1">
          <mxGeometry x="260" y="-300" width="120" height="60" as="geometry" />
        </mxCell>
        <mxCell id="bpUOQ-OWbFzP9RijDi25-27" value="和调课一样的，三个接口缓存，是否有用" style="text;html=1;align=center;verticalAlign=middle;resizable=0;points=[];autosize=1;" vertex="1" parent="WIyWlLk6GJQsqaUBKTNV-1">
          <mxGeometry x="330" y="-1050" width="230" height="20" as="geometry" />
        </mxCell>
      </root>
    </mxGraphModel>
  </diagram>
</mxfile>
